<svg width="20" height="20" viewBox="0 0 20 20" fill="none" xmlns="http://www.w3.org/2000/svg">
  <path d="M7.48 5.17C8.28 4.89 9.12 4.75 10 4.75C13.75 4.75 16.7 6.83 18.25 10C17.58 11.38 16.62 12.52 15.45 13.33M11.92 11.93C11.43 12.43 10.74 12.75 10 12.75C8.48 12.75 7.25 11.52 7.25 10C7.25 9.26 7.57 8.57 8.07 8.08" stroke="#8A6A44" stroke-width="1.5" stroke-linecap="round" stroke-linejoin="round"/>
  <path d="M4.32 7.06C3.24 7.81 2.37 8.8 1.75 10C3.3 13.17 6.25 15.25 10 15.25C11.4 15.25 12.66 14.96 13.78 14.45" stroke="#8A6A44" stroke-width="1.5" stroke-linecap="round" stroke-linejoin="round"/>
  <path d="M2.5 2.5L17.5 17.5" stroke="#8A6A44" stroke-width="1.5" stroke-linecap="round"/>
</svg>
